<svg width="44" height="44" viewBox="0 0 44 44" fill="none" xmlns="http://www.w3.org/2000/svg">
<path fill-rule="evenodd" clip-rule="evenodd" d="M22 0.5C10.1259 0.5 0.5 10.1259 0.5 22C0.5 33.8741 10.1259 43.5 22 43.5C33.8741 43.5 43.5 33.8741 43.5 22C43.5 10.1259 33.8741 0.5 22 0.5ZM22 1.5C33.3218 1.5 42.5 10.6782 42.5 22C42.5 33.3218 33.3218 42.5 22 42.5C10.6782 42.5 1.5 33.3218 1.5 22C1.5 10.6782 10.6782 1.5 22 1.5ZM17 16C17 13.2386 19.2386 11 22 11C24.7614 11 27 13.2386 27 16C27 18.7614 24.7614 21 22 21C19.2386 21 17 18.7614 17 16ZM25 16C25 14.3431 23.6569 13 22 13C20.3431 13 19 14.3431 19 16C19 17.6569 20.3431 19 22 19C23.6569 19 25 17.6569 25 16ZM26 23C28.6888 23 30.8818 25.1223 30.9954 27.7831L31 28V30C31 30.5523 30.5523 31 30 31C29.4872 31 29.0645 30.614 29.0067 30.1166L29 30V28C29 26.4023 27.7511 25.0963 26.1763 25.0051L26 25H18C16.4023 25 15.0963 26.2489 15.0051 27.8237L15 28V30C15 30.5523 14.5523 31 14 31C13.4872 31 13.0645 30.614 13.0067 30.1166L13 30V28C13 25.3112 15.1223 23.1182 17.7831 23.0046L18 23H26Z" fill="black"/>
</svg>
