<svg width="50" height="50" viewBox="0 0 50 50" fill="none" xmlns="http://www.w3.org/2000/svg">
<path d="M42.6542 23.8742L42.6441 23.8642C42.6342 23.8542 42.6241 23.8342 42.6142 23.8242C42.5941 23.7942 42.5741 23.7642 42.5442 23.7342C42.5442 23.7242 42.5341 23.7242 42.5341 23.7142L42.5141 23.6842C42.4941 23.6542 42.4641 23.6342 42.4441 23.6042L42.4141 23.5742L30.4141 11.5742C29.6341 10.7942 28.3641 10.7942 27.5841 11.5742C26.8441 12.3142 26.8041 13.4942 27.4641 14.2742L27.5841 14.4042L36.1741 23.0142L9.00415 23.0142C7.90415 23.0142 7.00415 23.9142 7.00415 25.0142C7.00415 26.0642 7.82415 26.9342 8.85415 27.0042L9.00415 27.0142L36.1741 27.0142L27.5842 35.6042C26.8442 36.3442 26.8041 37.5242 27.4641 38.3042L27.5842 38.4342C28.3242 39.1742 29.5042 39.2142 30.2842 38.5542L30.4142 38.4342L42.4141 26.4342C42.4542 26.3942 42.4841 26.3542 42.5242 26.3142L42.4141 26.4342C42.4641 26.3842 42.5141 26.3342 42.5541 26.2842C42.5741 26.2542 42.6041 26.2242 42.6241 26.1942C42.6341 26.1842 42.6442 26.1742 42.6542 26.1542C42.6742 26.1242 42.6942 26.0842 42.7242 26.0542C42.7341 26.0442 42.7342 26.0342 42.7442 26.0142C42.8441 25.8342 42.9241 25.6442 42.9641 25.4342C42.9641 25.4142 42.9742 25.3942 42.9742 25.3742C42.9841 25.3442 42.9842 25.3042 42.9942 25.2742C42.9942 25.2542 42.9942 25.2342 43.0041 25.2142C43.0041 25.1842 43.0141 25.1542 43.0141 25.1242C43.0141 25.1042 43.0141 25.0842 43.0141 25.0642C43.0141 25.0442 43.0141 25.0342 43.0141 25.0142L43.0141 24.9642C43.0141 24.9342 43.0141 24.9142 43.0141 24.8842L43.0041 25.0142C43.0041 24.9442 43.0041 24.8842 42.9942 24.8242C42.9942 24.7942 42.9841 24.7742 42.9841 24.7442C42.9841 24.7142 42.9741 24.6842 42.9641 24.6442C42.9641 24.6242 42.9542 24.6042 42.9542 24.5742C42.9442 24.5542 42.9441 24.5242 42.9342 24.5042C42.9242 24.4742 42.9241 24.4542 42.9141 24.4242C42.9042 24.3942 42.8941 24.3742 42.8941 24.3442C42.8842 24.3242 42.8741 24.3042 42.8741 24.2742C42.8642 24.2442 42.8441 24.2142 42.8342 24.1842C42.8242 24.1742 42.8241 24.1542 42.8142 24.1342L42.8041 24.1142C42.7541 24.0442 42.7042 23.9642 42.6542 23.8742Z" fill="#FFFDFB"/>
</svg>
