<svg width="50" height="50" viewBox="0 0 50 50" fill="none" xmlns="http://www.w3.org/2000/svg">
<path d="M23.8783 7.36001L23.8683 7.37001C23.8583 7.38001 23.8383 7.39001 23.8283 7.40001C23.7983 7.42001 23.7683 7.44001 23.7383 7.47001C23.7283 7.47001 23.7283 7.48001 23.7183 7.48001L23.6883 7.50001C23.6583 7.52001 23.6383 7.55001 23.6083 7.57001L23.5783 7.60001L11.5783 19.6C10.7983 20.38 10.7983 21.65 11.5783 22.43C12.3183 23.17 13.4983 23.21 14.2783 22.55L14.4083 22.43L23.0183 13.84L23.0183 41.01C23.0183 42.11 23.9183 43.01 25.0183 43.01C26.0683 43.01 26.9383 42.19 27.0083 41.16L27.0183 41.01L27.0183 13.84L35.6083 22.43C36.3483 23.17 37.5283 23.21 38.3083 22.55L38.4383 22.43C39.1783 21.69 39.2183 20.51 38.5583 19.73L38.4383 19.6L26.4383 7.60001C26.3983 7.56001 26.3583 7.53001 26.3183 7.49001L26.4383 7.60001C26.3883 7.55001 26.3383 7.50001 26.2883 7.46001C26.2583 7.44001 26.2283 7.41001 26.1983 7.39001C26.1883 7.38001 26.1783 7.37001 26.1583 7.36001C26.1283 7.34001 26.0883 7.32001 26.0583 7.29001C26.0483 7.28001 26.0383 7.28001 26.0183 7.27001C25.8383 7.17001 25.6483 7.09001 25.4383 7.05001C25.4183 7.05001 25.3983 7.04001 25.3783 7.04001C25.3483 7.03001 25.3083 7.03001 25.2783 7.02001C25.2583 7.02001 25.2383 7.02001 25.2183 7.01001C25.1883 7.01001 25.1583 7.00001 25.1283 7.00001C25.1083 7.00001 25.0883 7.00001 25.0683 7.00001C25.0483 7.00001 25.0383 7.00001 25.0183 7.00001L24.9683 7.00001C24.9383 7.00001 24.9183 7.00001 24.8883 7.00001L25.0183 7.01001C24.9483 7.01001 24.8883 7.01001 24.8283 7.02001C24.7983 7.02001 24.7783 7.03001 24.7483 7.03001C24.7183 7.03001 24.6883 7.04001 24.6483 7.05001C24.6283 7.05001 24.6083 7.06001 24.5783 7.06001C24.5583 7.07001 24.5283 7.07001 24.5083 7.08001C24.4783 7.09001 24.4583 7.09001 24.4283 7.10001C24.3983 7.11001 24.3783 7.12001 24.3483 7.12001C24.3283 7.13001 24.3083 7.14001 24.2783 7.14001C24.2483 7.15001 24.2183 7.17001 24.1883 7.18001C24.1783 7.19 24.1583 7.19001 24.1383 7.20001L24.1183 7.21001C24.0483 7.26001 23.9683 7.31001 23.8783 7.36001Z" fill="#34303D"/>
</svg>
