<svg width="80" height="80" viewBox="0 0 80 80" fill="none" xmlns="http://www.w3.org/2000/svg">
<path fill-rule="evenodd" clip-rule="evenodd" d="M39.5587 19.6245C46.9578 19.6245 52.9559 25.5626 52.9559 32.8877C52.9559 40.2128 46.9578 46.1499 39.5587 46.1499C32.16 46.1499 26.1619 40.2128 26.1619 32.8877C26.1619 25.5626 32.16 19.6245 39.5587 19.6245ZM14.215 65.8615C14.5359 63.7556 15.1565 61.7247 16.0615 59.825C16.9703 57.9178 18.1877 56.0954 19.6782 54.409C21.146 52.7501 22.9291 51.1714 24.9791 49.7174C25.0335 49.6789 25.0879 49.6419 25.1424 49.6058V49.4746L26.0734 49.1307C26.6121 48.9353 27.1706 48.8589 27.7325 48.9011C28.8154 48.9849 29.3375 49.3462 29.8625 49.7745C29.959 49.8532 30.0641 49.9404 30.1985 50.0332C35.55 53.7182 43.8428 53.7089 48.7418 50.0266C49.1252 49.6414 49.565 49.3467 50.0506 49.1489C50.6266 48.9151 51.2377 48.8261 51.8706 48.8884C52.3174 48.931 52.7434 49.0463 53.1722 49.2403C53.4472 49.3654 53.7104 49.5173 53.9793 49.7042C55.9166 51.0604 57.623 52.5463 59.0525 54.1212C60.5307 55.751 61.7542 57.5214 62.6881 59.3831C63.6391 61.2781 64.3121 63.3118 64.6884 65.4294C64.9232 66.7495 65.0463 68.1196 65.0572 69.5235C71.2095 63.204 75 54.6151 75 45.1448C75 25.7346 59.1064 10 39.5 10C19.8941 10 4 25.7346 4 45.1448C4 54.6273 7.80039 63.2265 13.967 69.5484C13.9594 68.2865 14.0347 67.0512 14.215 65.8615Z" fill="#FFFDFB"/>
</svg>
