<svg width="85" height="85" viewBox="0 0 85 85" fill="none" xmlns="http://www.w3.org/2000/svg">
<circle cx="42.5" cy="42.5" r="42.5" fill="white"/>
<path fill-rule="evenodd" clip-rule="evenodd" d="M0 42.5C0 19.0279 19.0279 0 42.5 0C65.9721 0 85 19.0279 85 42.5C85 65.9721 65.9721 85 42.5 85C19.0279 85 0 65.9721 0 42.5ZM84 42.5C84 19.5802 65.4198 1 42.5 1C19.5802 1 1 19.5802 1 42.5C1 65.4198 19.5802 84 42.5 84C65.4198 84 84 65.4198 84 42.5ZM61.4592 30.0079L42.5 43.279L23.5408 30.0079C23.7779 28.5914 25.0197 27.5 26.5 27.5H58.5C59.9803 27.5 61.2221 28.5914 61.4592 30.0079ZM63.5 30.4842C63.5001 30.4936 63.5001 30.5029 63.5 30.5123V54.5C63.5 57.2523 61.2523 59.5 58.5 59.5H26.5C23.7477 59.5 21.5 57.2523 21.5 54.5V30.5122M23.5 32.4207V54.5C23.5 56.1477 24.8523 57.5 26.5 57.5H58.5C60.1477 57.5 61.5 56.1477 61.5 54.5V32.4207L43.0735 45.3192C42.7674 45.5335 42.3713 45.5573 42.0452 45.3906L41.9265 45.3192L23.5 32.4207ZM63.5 30.4842C63.4914 27.7391 61.247 25.5 58.5 25.5H26.5C23.753 25.5 21.5086 27.7392 21.5 30.4843" fill="#34303D"/>
<mask id="mask0" mask-type="alpha" maskUnits="userSpaceOnUse" x="0" y="0" width="85" height="85">
<path fill-rule="evenodd" clip-rule="evenodd" d="M0 42.5C0 19.0279 19.0279 0 42.5 0C65.9721 0 85 19.0279 85 42.5C85 65.9721 65.9721 85 42.5 85C19.0279 85 0 65.9721 0 42.5ZM84 42.5C84 19.5802 65.4198 1 42.5 1C19.5802 1 1 19.5802 1 42.5C1 65.4198 19.5802 84 42.5 84C65.4198 84 84 65.4198 84 42.5ZM61.4592 30.0079L42.5 43.279L23.5408 30.0079C23.7779 28.5914 25.0197 27.5 26.5 27.5H58.5C59.9803 27.5 61.2221 28.5914 61.4592 30.0079ZM63.5 30.4842C63.5001 30.4936 63.5001 30.5029 63.5 30.5123V54.5C63.5 57.2523 61.2523 59.5 58.5 59.5H26.5C23.7477 59.5 21.5 57.2523 21.5 54.5V30.5122M23.5 32.4207V54.5C23.5 56.1477 24.8523 57.5 26.5 57.5H58.5C60.1477 57.5 61.5 56.1477 61.5 54.5V32.4207L43.0735 45.3192C42.7674 45.5335 42.3713 45.5573 42.0452 45.3906L41.9265 45.3192L23.5 32.4207ZM63.5 30.4842C63.4914 27.7391 61.247 25.5 58.5 25.5H26.5C23.753 25.5 21.5086 27.7392 21.5 30.4843" fill="white"/>
</mask>
<g mask="url(#mask0)">
</g>
</svg>
