<svg width="85" height="85" viewBox="0 0 85 85" fill="none" xmlns="http://www.w3.org/2000/svg">
<path fill-rule="evenodd" clip-rule="evenodd" d="M42.5 0C19.0279 0 0 19.0279 0 42.5C0 65.9721 19.0279 85 42.5 85C65.9721 85 85 65.9721 85 42.5C85 19.0279 65.9721 0 42.5 0ZM42.5 1C65.4198 1 84 19.5802 84 42.5C84 65.4198 65.4198 84 42.5 84C19.5802 84 1 65.4198 1 42.5C1 19.5802 19.5802 1 42.5 1ZM47.582 51.694C47.582 52.292 47.088 52.656 46.49 52.656C45.866 52.656 45.554 52.292 45.372 51.798L44.176 48.47H35.596L34.4 51.798C34.218 52.292 33.906 52.656 33.282 52.656C32.684 52.656 32.19 52.292 32.19 51.694C32.19 51.4353 32.3509 50.98 32.4503 50.6985C32.4708 50.6406 32.4887 50.59 32.502 50.55L38.248 35.236C38.534 34.43 39.002 33.832 39.886 33.832C40.77 33.832 41.238 34.43 41.524 35.236L47.27 50.55C47.2773 50.5718 47.2859 50.5967 47.2955 50.6242C47.3036 50.6472 47.3123 50.6721 47.3216 50.6984L47.3217 50.6985C47.4211 50.98 47.582 51.4353 47.582 51.694ZM25.144 51.434C25.144 52.188 24.702 52.656 24 52.656C23.298 52.656 22.856 52.188 22.856 51.434V35.236C22.856 34.534 23.22 33.988 24.078 33.988H30.578C31.228 33.988 31.696 34.326 31.696 35.054C31.696 35.782 31.228 36.12 30.578 36.12H25.144V42.178H29.954C30.604 42.178 31.072 42.516 31.072 43.244C31.072 43.972 30.604 44.31 29.954 44.31H25.144V51.434ZM39.912 36.484L43.474 46.494H36.298L39.86 36.484H39.912ZM65.626 51.902C65.626 52.396 65.236 52.864 64.638 52.864C64.196 52.864 63.936 52.63 63.754 52.448L61.934 50.654C60.634 51.902 58.892 52.656 56.76 52.656C51.482 52.656 48.648 48.054 48.648 43.244C48.648 38.434 51.482 33.832 56.76 33.832C62.038 33.832 64.872 38.434 64.872 43.244C64.872 45.376 64.326 47.43 63.26 49.094L65.184 50.992C65.47 51.278 65.626 51.538 65.626 51.902ZM56.76 50.68C52.6 50.68 51.092 46.78 51.092 43.244C51.092 39.708 52.6 35.808 56.76 35.808C60.92 35.808 62.428 39.708 62.428 43.244C62.428 44.7 62.168 46.208 61.596 47.456L60.322 46.208C60.01 45.896 59.776 45.792 59.464 45.792C58.866 45.792 58.45 46.26 58.45 46.832C58.45 47.17 58.632 47.404 58.918 47.69L60.452 49.198C59.542 50.134 58.346 50.68 56.76 50.68Z" fill="#34303D"/>
<mask id="mask0" mask-type="alpha" maskUnits="userSpaceOnUse" x="0" y="0" width="85" height="85">
<path fill-rule="evenodd" clip-rule="evenodd" d="M42.5 0C19.0279 0 0 19.0279 0 42.5C0 65.9721 19.0279 85 42.5 85C65.9721 85 85 65.9721 85 42.5C85 19.0279 65.9721 0 42.5 0ZM42.5 1C65.4198 1 84 19.5802 84 42.5C84 65.4198 65.4198 84 42.5 84C19.5802 84 1 65.4198 1 42.5C1 19.5802 19.5802 1 42.5 1ZM47.582 51.694C47.582 52.292 47.088 52.656 46.49 52.656C45.866 52.656 45.554 52.292 45.372 51.798L44.176 48.47H35.596L34.4 51.798C34.218 52.292 33.906 52.656 33.282 52.656C32.684 52.656 32.19 52.292 32.19 51.694C32.19 51.4353 32.3509 50.98 32.4503 50.6985C32.4708 50.6406 32.4887 50.59 32.502 50.55L38.248 35.236C38.534 34.43 39.002 33.832 39.886 33.832C40.77 33.832 41.238 34.43 41.524 35.236L47.27 50.55C47.2773 50.5718 47.2859 50.5967 47.2955 50.6242C47.3036 50.6472 47.3123 50.6721 47.3216 50.6984L47.3217 50.6985C47.4211 50.98 47.582 51.4353 47.582 51.694ZM25.144 51.434C25.144 52.188 24.702 52.656 24 52.656C23.298 52.656 22.856 52.188 22.856 51.434V35.236C22.856 34.534 23.22 33.988 24.078 33.988H30.578C31.228 33.988 31.696 34.326 31.696 35.054C31.696 35.782 31.228 36.12 30.578 36.12H25.144V42.178H29.954C30.604 42.178 31.072 42.516 31.072 43.244C31.072 43.972 30.604 44.31 29.954 44.31H25.144V51.434ZM39.912 36.484L43.474 46.494H36.298L39.86 36.484H39.912ZM65.626 51.902C65.626 52.396 65.236 52.864 64.638 52.864C64.196 52.864 63.936 52.63 63.754 52.448L61.934 50.654C60.634 51.902 58.892 52.656 56.76 52.656C51.482 52.656 48.648 48.054 48.648 43.244C48.648 38.434 51.482 33.832 56.76 33.832C62.038 33.832 64.872 38.434 64.872 43.244C64.872 45.376 64.326 47.43 63.26 49.094L65.184 50.992C65.47 51.278 65.626 51.538 65.626 51.902ZM56.76 50.68C52.6 50.68 51.092 46.78 51.092 43.244C51.092 39.708 52.6 35.808 56.76 35.808C60.92 35.808 62.428 39.708 62.428 43.244C62.428 44.7 62.168 46.208 61.596 47.456L60.322 46.208C60.01 45.896 59.776 45.792 59.464 45.792C58.866 45.792 58.45 46.26 58.45 46.832C58.45 47.17 58.632 47.404 58.918 47.69L60.452 49.198C59.542 50.134 58.346 50.68 56.76 50.68Z" fill="white"/>
</mask>
<g mask="url(#mask0)">
</g>
</svg>
