<svg width="324" height="32" viewBox="0 0 324 32" fill="none" xmlns="http://www.w3.org/2000/svg">
<g clip-path="url(#clip0)">
<path fill-rule="evenodd" clip-rule="evenodd" d="M234.95 4.76L226.72 20.1H243.25L234.95 4.76ZM191.72 0.26C192.37 0.26 192.96 0.61 193.31 1.25L203.23 26.03L215.27 1.25C215.62 0.61 216.21 0.26 216.86 0.26C217.27 0.26 217.69 0.38 218.1 0.61C218.63 0.96 219.04 1.36 219.16 1.83C219.22 2 219.28 2.24 219.28 2.41C219.28 2.7 219.16 2.99 219.04 3.22L206.17 29.33C205.64 30.26 204.52 30.84 203.22 30.84C201.92 30.84 200.74 30.26 200.21 29.33L191.41 8.44L182.67 29.33C182.2 30.26 181.07 30.84 179.78 30.84C178.42 30.84 177.3 30.26 176.71 29.33L163.85 3.22C163.67 2.93 163.61 2.64 163.61 2.29C163.61 2.12 163.61 2 163.67 1.82C163.85 1.36 164.26 0.95 164.79 0.6C165.2 0.37 165.62 0.25 165.97 0.25C166.68 0.25 167.27 0.6 167.62 1.24L179.72 26.02L189.58 1.24C189.93 0.6 190.52 0.25 191.17 0.25H191.72V0.26ZM156.33 0.28C157.5 0.28 158.32 1.16 158.32 2.46C158.32 3.81 157.56 4.69 156.45 4.69H142.58V29.39C142.58 30.51 141.64 31.27 140.41 31.27C139.06 31.27 138.24 30.45 138.24 29.27V4.69H124.31C123.26 4.69 122.44 3.75 122.44 2.46C122.44 1.17 123.26 0.28 124.43 0.28H156.33ZM73.78 0.28C75 0.28 75.82 1.16 75.82 2.51C75.82 3.86 75.06 4.74 73.89 4.74H48.46V13.09H73.77C74.99 13.09 75.81 13.97 75.81 15.27C75.81 16.62 75.05 17.56 73.88 17.56H48.46V26.79H73.77C74.99 26.79 75.81 27.67 75.81 28.97C75.81 30.32 75.05 31.26 73.88 31.26H46.18C45.83 31.26 45.48 31.14 45.25 30.97C44.61 30.68 44.26 30.15 44.26 29.38V2.1C44.26 1.28 44.78 0.63 45.66 0.4C45.83 0.34 46.07 0.28 46.3 0.28H73.78ZM34.82 0.28C36.11 0.28 36.94 1.1 36.94 2.1V29.44C36.94 30.44 36.12 31.26 34.82 31.26C33.53 31.26 32.7 30.5 32.7 29.32V17.51H32.66C32.65 17.51 32.63 17.51 32.61 17.51H32.26C32.22 17.51 32.18 17.51 32.13 17.51H31.83C31.77 17.51 31.72 17.51 31.66 17.51H31.27C28.98 17.51 24.25 17.5 19.37 17.49H18.48C13.3 17.48 8.11 17.47 5.66 17.46H5.27C5.21 17.46 5.15 17.46 5.1 17.46H4.8C4.75 17.46 4.71 17.46 4.67 17.46H4.23V29.46C4.23 30.46 3.47 31.28 2.11 31.28C0.82 31.27 0 30.5 0 29.33V2.22C0 1.1 0.82 0.28 2.12 0.28C3.47 0.28 4.24 1.1 4.24 2.1V13.21H32.71V2.21C32.71 1.1 33.53 0.28 34.82 0.28ZM321.36 0.28C322.62 0.28 323.45 1.16 323.45 2.51C323.45 3.86 322.67 4.75 321.48 4.75H295.4V13.1H321.36C322.62 13.1 323.45 13.98 323.45 15.27C323.45 16.62 322.67 17.56 321.48 17.56H295.4V26.79H321.36C322.62 26.79 323.45 27.67 323.45 28.97C323.45 30.32 322.67 31.26 321.48 31.26H293.06C292.7 31.26 292.34 31.14 292.1 30.97C291.44 30.67 291.08 30.15 291.08 29.38V2.1C291.08 1.28 291.62 0.63 292.52 0.4C292.7 0.34 292.94 0.28 293.18 0.28H321.36ZM284.34 0C284.75 0 285.16 0.12 285.56 0.36C286.09 0.66 286.49 1.07 286.61 1.61C286.67 1.79 286.73 1.97 286.73 2.14C286.73 2.44 286.61 2.73 286.5 3.03L271.57 29.78C271.1 30.67 269.99 31.27 268.71 31.27C267.43 31.27 266.26 30.68 265.68 29.78L250.74 3.03C250.62 2.73 250.51 2.44 250.51 2.14C250.51 1.96 250.57 1.78 250.63 1.61C250.8 1.08 251.16 0.66 251.74 0.36C252.08 0.12 252.49 0 252.9 0C253.6 0 254.12 0.36 254.48 1.01L268.66 26.39L282.78 1.01C283.12 0.36 283.7 0 284.34 0ZM234.95 0C236.23 0 237.33 0.54 237.85 1.43L252.34 28.3C252.51 28.6 252.57 28.89 252.57 29.19C252.57 29.37 252.57 29.55 252.51 29.72C252.34 30.2 251.99 30.61 251.41 30.91C251.06 31.15 250.66 31.27 250.31 31.27C249.62 31.27 249.09 30.91 248.75 30.32L245.56 24.38H224.4L221.27 30.32C220.92 30.91 220.34 31.27 219.71 31.27C219.3 31.27 218.96 31.15 218.55 30.91C218.03 30.61 217.68 30.2 217.51 29.72C217.45 29.54 217.39 29.36 217.39 29.19C217.39 28.89 217.51 28.6 217.62 28.3L232.11 1.43C232.63 0.54 233.67 0 234.95 0Z" fill="black"/>
<path fill-rule="evenodd" clip-rule="evenodd" d="M112.73 0.350098C113.93 0.350098 114.9 1.2501 114.9 2.3501V2.5101C114.9 3.6201 113.93 4.5101 112.73 4.5101H84.98C83.78 4.5101 82.81 3.6101 82.81 2.5101V2.3501C82.81 1.2401 83.78 0.350098 84.98 0.350098H112.73ZM112.73 13.5501C113.93 13.5501 114.9 14.4501 114.9 15.5501V15.7101C114.9 16.8201 113.93 17.7101 112.73 17.7101H84.98C83.78 17.7101 82.81 16.8101 82.81 15.7101V15.5501C82.81 14.4401 83.78 13.5501 84.98 13.5501H112.73ZM112.73 27.1001C113.93 27.1001 114.9 28.0001 114.9 29.1001V29.2601C114.9 30.3701 113.93 31.2601 112.73 31.2601H84.98C83.78 31.2601 82.81 30.3601 82.81 29.2601V29.1001C82.81 27.9901 83.78 27.1001 84.98 27.1001H112.73Z" fill="#F07F3C"/>
</g>
<defs>
<clipPath id="clip0">
<rect width="323.45" height="31.27" fill="white"/>
</clipPath>
</defs>
</svg>
