<svg width="200" height="45" viewBox="0 0 200 45" fill="none" xmlns="http://www.w3.org/2000/svg">
<path fill-rule="evenodd" clip-rule="evenodd" d="M0 44.0155H14.6718V1.54443H0V44.0155Z" fill="#FFFDFB"/>
<path fill-rule="evenodd" clip-rule="evenodd" d="M30.7673 41.9913C27.1875 40.1276 24.3822 37.5222 22.3519 34.1744C20.3204 30.8279 19.3051 27.0292 19.3051 22.7801C19.3051 18.5313 20.3204 14.7329 22.3519 11.3855C24.3822 8.03862 27.1875 5.43229 30.7673 3.56856C34.3466 1.70423 38.3689 0.772217 42.8329 0.772217C46.9355 0.772217 50.5946 1.49408 53.8125 2.9372C57.0298 4.38002 59.6842 6.46502 61.7761 9.19041L52.787 17.1877C50.1723 13.9013 47.0956 12.2573 43.5568 12.2573C40.5799 12.2573 38.1879 13.2101 36.3781 15.1135C34.5683 17.0181 33.6634 19.5737 33.6634 22.7801C33.6634 25.9877 34.5683 28.5432 36.3781 30.4467C38.1879 32.3513 40.5799 33.3028 43.5568 33.3028C47.0956 33.3028 50.1723 31.6595 52.787 28.3722L61.7761 36.3695C59.6842 39.0958 57.0298 41.1799 53.8125 42.623C50.5946 44.0658 46.9355 44.7877 42.8329 44.7877C38.3689 44.7877 34.3466 43.8553 30.7673 41.9913Z" fill="#FFFDFB"/>
<path fill-rule="evenodd" clip-rule="evenodd" d="M157.529 1.54443V44.0155H145.805L129.73 24.7212V44.0155H115.83V1.54443H127.554L143.629 20.8387V1.54443H157.529Z" fill="#FFFDFB"/>
<path fill-rule="evenodd" clip-rule="evenodd" d="M170.288 43.6151C166.99 42.8334 164.281 41.7811 162.162 40.4583L166.72 30.1158C168.718 31.2791 170.956 32.2108 173.436 32.9119C175.914 33.6136 178.293 33.9642 180.571 33.9642C182.53 33.9642 183.929 33.7748 184.769 33.393C185.608 33.0123 186.028 32.4411 186.028 31.6795C186.028 30.798 185.478 30.1366 184.379 29.6949C183.279 29.2542 181.471 28.7734 178.952 28.2518C175.714 27.5708 173.016 26.8387 170.857 26.057C168.699 25.2753 166.819 23.9928 165.221 22.209C163.621 20.4255 162.822 18.0098 162.822 14.963C162.822 12.3173 163.561 9.91204 165.041 7.74734C166.519 5.58265 168.729 3.87915 171.667 2.63626C174.605 1.39397 178.173 0.772217 182.37 0.772217C185.248 0.772217 188.076 1.08339 190.855 1.70424C193.633 2.32629 196.082 3.23756 198.201 4.44017L193.943 14.7225C189.825 12.6386 185.928 11.5957 182.25 11.5957C178.612 11.5957 176.794 12.4781 176.794 14.2417C176.794 15.0832 177.333 15.7146 178.413 16.1355C179.492 16.5564 181.27 17.0074 183.749 17.4885C186.947 18.0898 189.646 18.7813 191.844 19.563C194.043 20.3447 195.952 21.6176 197.571 23.3812C199.19 25.1455 200 27.5507 200 30.5969C200 33.2426 199.26 35.6385 197.781 37.7825C196.302 39.9273 194.093 41.6308 191.155 42.8939C188.217 44.1563 184.649 44.7877 180.451 44.7877C176.974 44.7877 173.586 44.3971 170.288 43.6151Z" fill="#FFFDFB"/>
<path fill-rule="evenodd" clip-rule="evenodd" d="M86.9102 6.24035C91.6582 6.24035 95.5071 10.0905 95.5071 14.8399C95.5071 19.5894 91.6582 23.4389 86.9102 23.4389C82.1626 23.4389 78.3137 19.5894 78.3137 14.8399C78.3137 10.0905 82.1626 6.24035 86.9102 6.24035ZM70.6475 36.2195C70.8534 34.8541 71.2516 33.5373 71.8324 32.3056C72.4155 31.069 73.1967 29.8874 74.1532 28.7939C75.095 27.7184 76.2392 26.6948 77.5547 25.752C77.5896 25.7271 77.6245 25.7031 77.6595 25.6797V25.5946L78.2569 25.3716C78.6025 25.2449 78.961 25.1954 79.3215 25.2227C80.0164 25.2771 80.3514 25.5113 80.6883 25.789C80.7502 25.8401 80.8177 25.8966 80.9039 25.9568C84.3379 28.3461 89.6593 28.34 92.8029 25.9525C93.049 25.7028 93.3311 25.5116 93.6428 25.3834C94.0124 25.2318 94.4045 25.1741 94.8106 25.2145C95.0973 25.2421 95.3707 25.3169 95.6459 25.4427C95.8223 25.5238 95.9912 25.6222 96.1637 25.7435C97.4069 26.6227 98.5019 27.5862 99.4191 28.6074C100.368 29.6641 101.153 30.8119 101.752 32.0191C102.362 33.2477 102.794 34.5664 103.036 35.9394C103.186 36.7953 103.265 37.6837 103.272 38.5939C107.22 34.4965 109.652 28.9276 109.652 22.7872C109.652 10.202 99.4538 0 86.8726 0C74.2917 0 64.0927 10.202 64.0927 22.7872C64.0927 28.9355 66.5313 34.5111 70.4883 38.61C70.4835 37.7918 70.5318 36.9909 70.6475 36.2195Z" fill="#FFFDFB"/>
</svg>
