<svg width="80" height="80" viewBox="0 0 80 80" fill="none" xmlns="http://www.w3.org/2000/svg">
<path fill-rule="evenodd" clip-rule="evenodd" d="M5.25 55.7894C6.49071 55.7894 7.5 56.781 7.5 58V61.7894C7.5 63.0084 6.49071 64 5.25 64C4.00929 64 3 63.0084 3 61.7894V58C3 56.781 4.00929 55.7894 5.25 55.7894Z" fill="#FFD040"/>
<path fill-rule="evenodd" clip-rule="evenodd" d="M18.75 46.9474C19.9907 46.9474 21 47.939 21 49.1579V61.7895C21 63.0084 19.9907 64 18.75 64C17.5093 64 16.5 63.0084 16.5 61.7895V49.1579C16.5 47.939 17.5093 46.9474 18.75 46.9474Z" fill="#00D1D2"/>
<path fill-rule="evenodd" clip-rule="evenodd" d="M32.25 40C33.4931 40 34.5 41.1305 34.5 42.5263V61.4737C34.5 62.8695 33.4931 64 32.25 64C31.0069 64 30 62.8695 30 61.4737V42.5263C30 41.1305 31.0069 40 32.25 40Z" fill="#287BAF"/>
<path fill-rule="evenodd" clip-rule="evenodd" d="M45.75 31.7894C46.9931 31.7894 48 32.92 48 34.3157V61.4736C48 62.8694 46.9931 64 45.75 64C44.5069 64 43.5 62.8694 43.5 61.4736V34.3157C43.5 32.92 44.5069 31.7894 45.75 31.7894Z" fill="#E3813B"/>
<path fill-rule="evenodd" clip-rule="evenodd" d="M59.25 22.9474C60.4907 22.9474 61.5 23.939 61.5 25.1579V61.7895C61.5 63.0084 60.4907 64 59.25 64C58.0093 64 57 63.0084 57 61.7895V25.1579C57 23.939 58.0093 22.9474 59.25 22.9474Z" fill="#DB3624"/>
<path fill-rule="evenodd" clip-rule="evenodd" d="M72.75 16C73.9907 16 75 16.9916 75 18.2105V61.7895C75 63.0084 73.9907 64 72.75 64C71.5093 64 70.5 63.0084 70.5 61.7895V18.2105C70.5 16.9916 71.5093 16 72.75 16Z" fill="#922C20"/>
</svg>
