<svg width="44" height="44" viewBox="0 0 44 44" fill="none" xmlns="http://www.w3.org/2000/svg">
<path fill-rule="evenodd" clip-rule="evenodd" d="M22 0.5C10.1259 0.5 0.5 10.1259 0.5 22C0.5 33.8741 10.1259 43.5 22 43.5C33.8741 43.5 43.5 33.8741 43.5 22C43.5 10.1259 33.8741 0.5 22 0.5ZM22 1.5C33.3218 1.5 42.5 10.6782 42.5 22C42.5 33.3218 33.3218 42.5 22 42.5C10.6782 42.5 1.5 33.3218 1.5 22C1.5 10.6782 10.6782 1.5 22 1.5ZM16.1928 12.4321C15.924 11.0309 14.6957 10.0022 13.2515 10H11L10.8834 10.0067C10.386 10.0645 10 10.4872 10 11C10 11.5523 10.4477 12 11 12H13.25L13.3639 12.0067C13.813 12.0587 14.1783 12.411 14.2385 12.87L15.7586 24.3908L15.7874 24.5692C16.0588 25.9807 17.3033 27.0123 18.7585 27L29.32 27L29.4983 26.9981C30.8574 26.9422 32.0295 25.9508 32.3008 24.5848L33.9805 16.1963L33.9969 16.0809C34.0447 15.5076 33.5917 15 33 15H16.536L16.2214 12.6092L16.1928 12.4321ZM16.8 17H31.779L30.3395 24.1937L30.3091 24.3098C30.1741 24.7244 29.7831 25.0087 29.3392 25.0002L18.75 25L18.6331 24.9944C18.1724 24.9461 17.8021 24.5925 17.7415 24.13L16.8 17ZM18 28C16.3431 28 15 29.3431 15 31C15 32.6569 16.3431 34 18 34C19.6569 34 21 32.6569 21 31C21 29.3431 19.6569 28 18 28ZM18 30C18.5523 30 19 30.4477 19 31C19 31.5523 18.5523 32 18 32C17.4477 32 17 31.5523 17 31C17 30.4477 17.4477 30 18 30ZM30 28C28.3431 28 27 29.3431 27 31C27 32.6569 28.3431 34 30 34C31.6569 34 33 32.6569 33 31C33 29.3431 31.6569 28 30 28ZM30 30C30.5523 30 31 30.4477 31 31C31 31.5523 30.5523 32 30 32C29.4477 32 29 31.5523 29 31C29 30.4477 29.4477 30 30 30Z" fill="black"/>
</svg>
