<svg width="85" height="85" viewBox="0 0 85 85" fill="none" xmlns="http://www.w3.org/2000/svg">
<circle cx="42.5" cy="42.5" r="42.5" fill="white"/>
<path fill-rule="evenodd" clip-rule="evenodd" d="M42.5 0C19.0279 0 0 19.0279 0 42.5C0 65.9721 19.0279 85 42.5 85C65.9721 85 85 65.9721 85 42.5C85 19.0279 65.9721 0 42.5 0ZM42.5 1C65.4198 1 84 19.5802 84 42.5C84 65.4198 65.4198 84 42.5 84C19.5802 84 1 65.4198 1 42.5C1 19.5802 19.5802 1 42.5 1ZM32.7103 21.4998L26.72 21.4998C25.3154 21.5014 23.9771 22.0926 23.031 23.1291C22.0847 24.1656 21.6177 25.5522 21.7441 26.95C22.4187 33.3038 24.5753 39.3943 28.0407 44.7437C31.1854 49.6926 35.3874 53.8946 40.3437 57.044C45.6611 60.4924 51.7222 62.6485 58.032 63.3341C59.4522 63.4627 60.8428 62.9924 61.8802 62.0406C62.9176 61.0888 63.5057 59.7438 63.5 58.3359L63.5 52.34C63.5627 49.8268 61.7136 47.6445 59.1997 47.2898C57.5514 47.0724 55.9367 46.6916 54.3734 46.1526L53.5603 45.8632C51.7942 45.2953 49.847 45.7536 48.5169 47.0689L46.519 49.065L46.2154 48.8824C42.1096 46.3483 38.6517 42.8904 36.1176 38.7846L35.934 38.48L37.9271 36.4871C39.3036 35.0952 39.7429 33.0353 39.0561 31.2081C38.4062 29.4665 37.9548 27.6546 37.7114 25.8092C37.3589 23.315 35.2199 21.4754 32.7103 21.4998ZM26.7211 23.4998L32.7297 23.4998C34.2356 23.4851 35.5191 24.5889 35.7298 26.08C35.9917 28.0657 36.4796 30.0244 37.1831 31.9096C37.5961 33.0082 37.3325 34.2441 36.5089 35.0769L33.9729 37.6129C33.6546 37.9312 33.5882 38.423 33.8107 38.8143C36.7468 43.9779 41.0221 48.2532 46.1857 51.1893C46.577 51.4118 47.0688 51.3454 47.3871 51.0271L49.9271 48.4871C50.7559 47.6675 51.9918 47.4039 53.0881 47.8161C54.9756 48.5204 56.9343 49.0083 58.9292 49.2714C60.3687 49.4745 61.4487 50.6894 61.4994 52.1335L61.5 58.34C61.5034 59.1888 61.1506 59.9958 60.5281 60.5669C59.9057 61.1379 59.0713 61.4201 58.23 61.3441C52.2492 60.694 46.4869 58.6442 41.4241 55.361C36.7079 52.364 32.716 48.3721 29.724 43.6637C26.4246 38.5705 24.3743 32.7802 23.7344 26.7544C23.6602 25.9313 23.9403 25.0994 24.5081 24.4774C25.0758 23.8555 25.8789 23.5007 26.7211 23.4998Z" fill="#34303D"/>
<mask id="mask0" mask-type="alpha" maskUnits="userSpaceOnUse" x="0" y="0" width="85" height="85">
<path fill-rule="evenodd" clip-rule="evenodd" d="M42.5 0C19.0279 0 0 19.0279 0 42.5C0 65.9721 19.0279 85 42.5 85C65.9721 85 85 65.9721 85 42.5C85 19.0279 65.9721 0 42.5 0ZM42.5 1C65.4198 1 84 19.5802 84 42.5C84 65.4198 65.4198 84 42.5 84C19.5802 84 1 65.4198 1 42.5C1 19.5802 19.5802 1 42.5 1ZM32.7103 21.4998L26.72 21.4998C25.3154 21.5014 23.9771 22.0926 23.031 23.1291C22.0847 24.1656 21.6177 25.5522 21.7441 26.95C22.4187 33.3038 24.5753 39.3943 28.0407 44.7437C31.1854 49.6926 35.3874 53.8946 40.3437 57.044C45.6611 60.4924 51.7222 62.6485 58.032 63.3341C59.4522 63.4627 60.8428 62.9924 61.8802 62.0406C62.9176 61.0888 63.5057 59.7438 63.5 58.3359L63.5 52.34C63.5627 49.8268 61.7136 47.6445 59.1997 47.2898C57.5514 47.0724 55.9367 46.6916 54.3734 46.1526L53.5603 45.8632C51.7942 45.2953 49.847 45.7536 48.5169 47.0689L46.519 49.065L46.2154 48.8824C42.1096 46.3483 38.6517 42.8904 36.1176 38.7846L35.934 38.48L37.9271 36.4871C39.3036 35.0952 39.7429 33.0353 39.0561 31.2081C38.4062 29.4665 37.9548 27.6546 37.7114 25.8092C37.3589 23.315 35.2199 21.4754 32.7103 21.4998ZM26.7211 23.4998L32.7297 23.4998C34.2356 23.4851 35.5191 24.5889 35.7298 26.08C35.9917 28.0657 36.4796 30.0244 37.1831 31.9096C37.5961 33.0082 37.3325 34.2441 36.5089 35.0769L33.9729 37.6129C33.6546 37.9312 33.5882 38.423 33.8107 38.8143C36.7468 43.9779 41.0221 48.2532 46.1857 51.1893C46.577 51.4118 47.0688 51.3454 47.3871 51.0271L49.9271 48.4871C50.7559 47.6675 51.9918 47.4039 53.0881 47.8161C54.9756 48.5204 56.9343 49.0083 58.9292 49.2714C60.3687 49.4745 61.4487 50.6894 61.4994 52.1335L61.5 58.34C61.5034 59.1888 61.1506 59.9958 60.5281 60.5669C59.9057 61.1379 59.0713 61.4201 58.23 61.3441C52.2492 60.694 46.4869 58.6442 41.4241 55.361C36.7079 52.364 32.716 48.3721 29.724 43.6637C26.4246 38.5705 24.3743 32.7802 23.7344 26.7544C23.6602 25.9313 23.9403 25.0994 24.5081 24.4774C25.0758 23.8555 25.8789 23.5007 26.7211 23.4998Z" fill="white"/>
</mask>
<g mask="url(#mask0)">
</g>
</svg>
