<svg width="100" height="100" viewBox="0 0 100 100" fill="none" xmlns="http://www.w3.org/2000/svg">
<path d="M42.5 35.825V60.4125L61.625 48.1125L42.5 35.825ZM37.5 31.25C37.5 29.275 39.6875 28.075 41.35 29.15L67.6 46.025C69.125 47.0125 69.125 49.25 67.6 50.225L41.35 67.1C39.6875 68.175 37.5 66.975 37.5 65V31.25ZM49.375 10C27.625 10 10 27.625 10 49.375C10 71.125 27.625 88.75 49.375 88.75C71.125 88.75 88.75 71.125 88.75 49.375C88.75 27.625 71.125 10 49.375 10ZM49.375 5C73.8875 5 93.75 24.8625 93.75 49.375C93.75 73.8875 73.8875 93.75 49.375 93.75C24.8625 93.75 5 73.8875 5 49.375C5 24.8625 24.8625 5 49.375 5Z" fill="#FFFDFB"/>
</svg>
