<svg width="44" height="44" viewBox="0 0 44 44" fill="none" xmlns="http://www.w3.org/2000/svg">
<path fill-rule="evenodd" clip-rule="evenodd" d="M22 0.5C10.1259 0.5 0.5 10.1259 0.5 22C0.5 33.8741 10.1259 43.5 22 43.5C33.8741 43.5 43.5 33.8741 43.5 22C43.5 10.1259 33.8741 0.5 22 0.5ZM32.2958 14.29C32.688 13.9011 33.3211 13.9037 33.71 14.2958C34.069 14.6578 34.0944 15.2252 33.7877 15.6162L33.7042 15.71L18.5792 30.71C18.2193 31.0669 17.656 31.0944 17.2648 30.7924L17.1708 30.71L10.2958 23.8919C9.90369 23.503 9.90106 22.8698 10.29 22.4777C10.649 22.1157 11.2161 22.0856 11.6096 22.389L11.7042 22.4718L17.874 28.59L32.2958 14.29ZM42.5 22C42.5 10.6782 33.3218 1.5 22 1.5C10.6782 1.5 1.5 10.6782 1.5 22C1.5 33.3218 10.6782 42.5 22 42.5C33.3218 42.5 42.5 33.3218 42.5 22Z" fill="black"/>
</svg>
