<svg width="44" height="44" viewBox="0 0 44 44" fill="none" xmlns="http://www.w3.org/2000/svg">
<path fill-rule="evenodd" clip-rule="evenodd" d="M22 0.5C10.1259 0.5 0.5 10.1259 0.5 22C0.5 33.8741 10.1259 43.5 22 43.5C33.8741 43.5 43.5 33.8741 43.5 22C43.5 10.1259 33.8741 0.5 22 0.5ZM22 1.5C33.3218 1.5 42.5 10.6782 42.5 22C42.5 33.3218 33.3218 42.5 22 42.5C10.6782 42.5 1.5 33.3218 1.5 22C1.5 10.6782 10.6782 1.5 22 1.5ZM18.246 17.346L11.8554 18.2805L11.7416 18.3035C11.0064 18.4954 10.7369 19.4357 11.3023 19.9864L15.925 24.489L14.8344 30.851L14.8214 30.9611C14.772 31.7225 15.5852 32.2733 16.2855 31.9051L22 28.9L27.7146 31.9051L27.8153 31.9515C28.5241 32.2338 29.2994 31.6308 29.1656 30.851L28.074 24.489L32.6977 19.9864L32.7763 19.901C33.2591 19.3142 32.9255 18.3946 32.1446 18.2805L25.753 17.346L22.8967 11.5574C22.5299 10.8142 21.4701 10.8142 21.1033 11.5574L18.246 17.346ZM22 14.258L24.1933 18.7026L24.2541 18.8088C24.4098 19.0461 24.6607 19.2079 24.9454 19.2495L29.851 19.966L26.3023 23.4236L26.2199 23.5143C26.042 23.7361 25.9657 24.0251 26.0144 24.309L26.851 29.191L22.4655 26.8849L22.3537 26.8346C22.0879 26.7341 21.7895 26.7508 21.5345 26.8849L17.148 29.191L17.9856 24.309L17.9989 24.1872C18.0124 23.9033 17.9041 23.6247 17.6977 23.4236L14.148 19.966L19.0546 19.2495C19.38 19.2019 19.6612 18.9975 19.8067 18.7026L22 14.258Z" fill="black"/>
</svg>
