<svg width="176" height="176" viewBox="0 0 176 176" fill="none" xmlns="http://www.w3.org/2000/svg">
<path fill-rule="evenodd" clip-rule="evenodd" d="M88.0001 163.068L79.0973 175.549L72.889 161.532L61.6561 171.964L58.3965 156.984L45.2935 164.943L45.116 149.613L30.6793 154.771L33.5912 139.719L18.4118 141.865L24.2939 127.708L8.99329 126.755L17.6047 114.072L2.8093 110.057L13.7976 99.3674L0.113037 92.4571L13.0283 84.1979L1.01488 74.6744L15.3283 69.184L5.4779 57.4371L20.6035 54.9404L13.3194 41.4512L28.638 42.0503L24.2183 27.3709L39.1027 31.0414L37.7285 15.7728L51.5694 22.3644L53.2968 7.13171L65.5275 16.3745L70.2858 1.80137L80.4056 13.317L88.0001 0L95.5946 13.317L105.714 1.80137L110.473 16.3745L122.703 7.13171L124.431 22.3644L138.272 15.7728L136.897 31.0414L151.782 27.3709L147.362 42.0503L162.681 41.4512L155.397 54.9404L170.522 57.4371L160.672 69.184L174.985 74.6744L162.972 84.1979L175.887 92.4571L162.203 99.3674L173.191 110.057L158.395 114.072L167.007 126.755L151.706 127.708L157.588 141.865L142.409 139.719L145.321 154.771L130.884 149.613L130.707 164.943L117.604 156.984L114.344 171.964L103.111 161.532L96.9029 175.549L88.0001 163.068Z" fill="#34303D"/>
<path d="M43.6522 86.268H57.9522V93H30.7602V86.268H34.9402V80.108H30.7602V75.092H34.9402V74.828C34.9402 70.6333 36.2456 67.3773 38.8562 65.06C41.4962 62.7427 45.1922 61.584 49.9442 61.584C53.5522 61.584 56.5442 62.244 58.9202 63.564L56.3682 70.252C54.7256 69.284 52.7309 68.8 50.3842 68.8C48.2136 68.8 46.5416 69.2987 45.3682 70.296C44.2242 71.264 43.6522 72.716 43.6522 74.652V75.092H53.5962V80.108H43.6522V86.268ZM73.9797 62.2V93H65.2677V68.932H59.5477V62.2H73.9797ZM82.6983 93.396C81.2903 93.396 80.1023 92.9267 79.1343 91.988C78.1663 91.0493 77.6823 89.8613 77.6823 88.424C77.6823 86.9573 78.1516 85.7693 79.0903 84.86C80.0583 83.9507 81.2609 83.496 82.6983 83.496C84.1649 83.496 85.3676 83.9507 86.3063 84.86C87.2449 85.7693 87.7143 86.9573 87.7143 88.424C87.7143 89.8613 87.2303 91.0493 86.2623 91.988C85.3236 92.9267 84.1356 93.396 82.6983 93.396ZM101.358 73.42C105.67 73.42 108.852 74.3 110.906 76.06C112.988 77.82 114.03 80.1667 114.03 83.1C114.03 85.0067 113.531 86.7667 112.534 88.38C111.566 89.964 110.07 91.24 108.046 92.208C106.051 93.1467 103.572 93.616 100.61 93.616C98.4391 93.616 96.2831 93.352 94.1418 92.824C92.0298 92.296 90.2111 91.548 88.6858 90.58L91.8098 84.024C93.0418 84.8453 94.3911 85.476 95.8578 85.916C97.3538 86.356 98.8498 86.576 100.346 86.576C101.842 86.576 103.03 86.2973 103.91 85.74C104.819 85.1533 105.274 84.3467 105.274 83.32C105.274 82.2933 104.834 81.516 103.954 80.988C103.074 80.46 101.519 80.196 99.2898 80.196H90.9298L92.4698 62.2H112.094V68.932H99.6858L99.2898 73.42H101.358ZM129.531 93.616C126.891 93.616 124.544 92.9853 122.491 91.724C120.438 90.4627 118.824 88.6293 117.651 86.224C116.507 83.7893 115.935 80.9147 115.935 77.6C115.935 74.2853 116.507 71.4253 117.651 69.02C118.824 66.5853 120.438 64.7373 122.491 63.476C124.544 62.2147 126.891 61.584 129.531 61.584C132.142 61.584 134.474 62.2147 136.527 63.476C138.58 64.7373 140.179 66.5853 141.323 69.02C142.496 71.4253 143.083 74.2853 143.083 77.6C143.083 80.9147 142.496 83.7893 141.323 86.224C140.179 88.6293 138.58 90.4627 136.527 91.724C134.474 92.9853 132.142 93.616 129.531 93.616ZM129.531 86.488C130.998 86.488 132.156 85.784 133.007 84.376C133.887 82.9387 134.327 80.68 134.327 77.6C134.327 74.52 133.887 72.276 133.007 70.868C132.156 69.4307 130.998 68.712 129.531 68.712C128.035 68.712 126.847 69.4307 125.967 70.868C125.116 72.276 124.691 74.52 124.691 77.6C124.691 80.68 125.116 82.9387 125.967 84.376C126.847 85.784 128.035 86.488 129.531 86.488Z" fill="white"/>
<path d="M59.8522 120.42H56.6122V126H50.6722V105H60.2722C62.1722 105 63.8222 105.32 65.2222 105.96C66.6222 106.58 67.7022 107.48 68.4622 108.66C69.2222 109.82 69.6022 111.19 69.6022 112.77C69.6022 114.29 69.2422 115.62 68.5222 116.76C67.8222 117.88 66.8122 118.76 65.4922 119.4L70.0222 126H63.6622L59.8522 120.42ZM63.6022 112.77C63.6022 111.79 63.2922 111.03 62.6722 110.49C62.0522 109.95 61.1322 109.68 59.9122 109.68H56.6122V115.83H59.9122C61.1322 115.83 62.0522 115.57 62.6722 115.05C63.2922 114.51 63.6022 113.75 63.6022 112.77ZM81.6355 120.42H78.3955V126H72.4555V105H82.0555C83.9555 105 85.6055 105.32 87.0055 105.96C88.4055 106.58 89.4855 107.48 90.2455 108.66C91.0055 109.82 91.3855 111.19 91.3855 112.77C91.3855 114.29 91.0255 115.62 90.3055 116.76C89.6055 117.88 88.5955 118.76 87.2755 119.4L91.8055 126H85.4455L81.6355 120.42ZM85.3855 112.77C85.3855 111.79 85.0755 111.03 84.4555 110.49C83.8355 109.95 82.9155 109.68 81.6955 109.68H78.3955V115.83H81.6955C82.9155 115.83 83.8355 115.57 84.4555 115.05C85.0755 114.51 85.3855 113.75 85.3855 112.77ZM103.839 105C105.739 105 107.389 105.32 108.789 105.96C110.189 106.58 111.269 107.48 112.029 108.66C112.789 109.82 113.169 111.19 113.169 112.77C113.169 114.35 112.789 115.72 112.029 116.88C111.269 118.04 110.189 118.94 108.789 119.58C107.389 120.2 105.739 120.51 103.839 120.51H100.179V126H94.2389V105H103.839ZM103.479 115.83C104.699 115.83 105.619 115.57 106.239 115.05C106.859 114.51 107.169 113.75 107.169 112.77C107.169 111.79 106.859 111.03 106.239 110.49C105.619 109.95 104.699 109.68 103.479 109.68H100.179V115.83H103.479ZM124.064 109.86L127.124 111.51L125.384 114.39L122.234 112.5L122.324 115.95H118.904L118.994 112.5L115.844 114.39L114.134 111.51L117.194 109.86L114.134 108.18L115.844 105.3L118.994 107.22L118.904 103.74H122.324L122.234 107.22L125.384 105.3L127.124 108.18L124.064 109.86Z" fill="white"/>
</svg>
