<svg width="85" height="85" viewBox="0 0 85 85" fill="none" xmlns="http://www.w3.org/2000/svg">
<circle cx="42.5" cy="42.5" r="42.5" fill="white"/>
<path fill-rule="evenodd" clip-rule="evenodd" d="M42.5 0C19.0279 0 0 19.0279 0 42.5C0 65.9721 19.0279 85 42.5 85C65.9721 85 85 65.9721 85 42.5C85 19.0279 65.9721 0 42.5 0ZM42.5 1C65.4198 1 84 19.5802 84 42.5C84 65.4198 65.4198 84 42.5 84C19.5802 84 1 65.4198 1 42.5C1 19.5802 19.5802 1 42.5 1ZM44.5 23.4999H43.5C40.7053 23.4927 37.9459 24.1463 35.4491 25.4074C29.3555 28.4529 25.5026 34.6831 25.5 41.4996L25.5056 41.9924C25.5676 44.4542 26.1416 46.8779 27.1912 49.1076L27.222 49.17L23.5513 60.1838L23.5219 60.29C23.3584 61.0311 24.07 61.6974 24.8162 61.4487L35.8268 57.7777C38.2228 58.9176 40.8457 59.5069 43.5026 59.5C50.3169 59.4974 56.5471 55.6445 59.5945 49.5471C60.8537 47.0541 61.5073 44.2947 61.5 41.4974L61.5001 40.5C61.0004 31.4179 53.8748 24.1863 44.8928 23.5232L44.5 23.4999ZM43.4974 25.4999L44.4553 25.499C52.5731 25.9522 59.0536 32.4359 59.5016 40.5551L59.5001 41.5C59.5065 43.9849 58.9265 46.4335 57.8074 48.6491C55.0967 54.0729 49.5587 57.4977 43.4996 57.5C41.0152 57.5065 38.5665 56.9265 36.3509 55.8074L36.229 55.7556C36.0215 55.6834 35.7946 55.681 35.5838 55.7513L26.08 58.919L29.2487 49.4162C29.333 49.1633 29.3128 48.8871 29.1926 48.6491C28.0735 46.4335 27.4935 43.9848 27.5 41.5026C27.5023 35.4413 30.9271 29.9033 36.3471 27.1945C38.5665 26.0735 41.0151 25.4935 43.4974 25.4999ZM44.4553 25.499L44.4449 25.4984L44.459 25.499L44.4553 25.499Z" fill="#34303D"/>
<mask id="mask0" mask-type="alpha" maskUnits="userSpaceOnUse" x="0" y="0" width="85" height="85">
<path fill-rule="evenodd" clip-rule="evenodd" d="M42.5 0C19.0279 0 0 19.0279 0 42.5C0 65.9721 19.0279 85 42.5 85C65.9721 85 85 65.9721 85 42.5C85 19.0279 65.9721 0 42.5 0ZM42.5 1C65.4198 1 84 19.5802 84 42.5C84 65.4198 65.4198 84 42.5 84C19.5802 84 1 65.4198 1 42.5C1 19.5802 19.5802 1 42.5 1ZM44.5 23.4999H43.5C40.7053 23.4927 37.9459 24.1463 35.4491 25.4074C29.3555 28.4529 25.5026 34.6831 25.5 41.4996L25.5056 41.9924C25.5676 44.4542 26.1416 46.8779 27.1912 49.1076L27.222 49.17L23.5513 60.1838L23.5219 60.29C23.3584 61.0311 24.07 61.6974 24.8162 61.4487L35.8268 57.7777C38.2228 58.9176 40.8457 59.5069 43.5026 59.5C50.3169 59.4974 56.5471 55.6445 59.5945 49.5471C60.8537 47.0541 61.5073 44.2947 61.5 41.4974L61.5001 40.5C61.0004 31.4179 53.8748 24.1863 44.8928 23.5232L44.5 23.4999ZM43.4974 25.4999L44.4553 25.499C52.5731 25.9522 59.0536 32.4359 59.5016 40.5551L59.5001 41.5C59.5065 43.9849 58.9265 46.4335 57.8074 48.6491C55.0967 54.0729 49.5587 57.4977 43.4996 57.5C41.0152 57.5065 38.5665 56.9265 36.3509 55.8074L36.229 55.7556C36.0215 55.6834 35.7946 55.681 35.5838 55.7513L26.08 58.919L29.2487 49.4162C29.333 49.1633 29.3128 48.8871 29.1926 48.6491C28.0735 46.4335 27.4935 43.9848 27.5 41.5026C27.5023 35.4413 30.9271 29.9033 36.3471 27.1945C38.5665 26.0735 41.0151 25.4935 43.4974 25.4999ZM44.4553 25.499L44.4449 25.4984L44.459 25.499L44.4553 25.499Z" fill="white"/>
</mask>
<g mask="url(#mask0)">
</g>
</svg>
